<svg width="61" height="61" viewBox="0 0 61 61" fill="none" xmlns="http://www.w3.org/2000/svg">
<g clip-path="url(#clip0_23_3)">
<rect width="61" height="61" rx="10" fill="#C95E62"/>
<path d="M35.3848 23.9062C35.3848 21.3997 34.3431 19.7396 32.2598 18.9258C31.5924 18.6654 30.8682 18.5352 30.0869 18.5352C29.3219 18.5352 28.6058 18.6003 27.9385 18.7305C27.2874 18.8607 26.7096 19.0641 26.2051 19.3408C25.0658 19.9593 24.4961 20.8464 24.4961 22.002C24.4961 23.1087 24.9681 24.069 25.9121 24.8828C26.9538 25.7454 28.8906 26.8115 31.7227 28.0811C34.5547 29.3343 36.7357 30.7096 38.2656 32.207C39.8118 33.6882 40.585 35.3971 40.585 37.334C40.585 39.515 39.6898 41.3542 37.8994 42.8516C35.7998 44.5931 32.8945 45.4639 29.1836 45.4639C24.6426 45.4639 21.5013 44.4954 19.7598 42.5586C19.1576 41.875 18.8564 41.0042 18.8564 39.9463C18.8564 37.391 19.4831 35.9017 20.7363 35.4785C21.0456 35.3809 21.3385 35.332 21.6152 35.332C22.3802 35.332 22.7952 35.568 22.8604 36.04C23.2184 40.109 25.4971 42.1436 29.6963 42.1436C32.2191 42.1436 33.9036 41.4355 34.75 40.0195C35.0267 39.5638 35.165 39.0104 35.165 38.3594C35.165 37.7083 34.9535 37.1143 34.5303 36.5771C34.1234 36.04 33.5537 35.5436 32.8213 35.0879C32.0889 34.6159 31.2181 34.1602 30.209 33.7207L26.9619 32.2559C21.9814 29.9772 19.4912 26.9499 19.4912 23.1738C19.4912 20.7324 20.5736 18.7793 22.7383 17.3145C24.7891 15.931 27.4339 15.2393 30.6729 15.2393C35.0674 15.2393 37.8018 16.1914 38.876 18.0957C39.1527 18.584 39.291 19.1211 39.291 19.707C39.291 20.293 39.2585 20.8219 39.1934 21.2939C39.1283 21.7497 39.0469 22.1647 38.9492 22.5391C38.7865 23.2552 38.5993 23.7598 38.3877 24.0527C37.9645 24.362 37.3542 24.5166 36.5566 24.5166C35.7754 24.5166 35.3848 24.3132 35.3848 23.9062Z" fill="white"/>
</g>
<defs>
<clipPath id="clip0_23_3">
<rect width="61" height="61" rx="10" fill="white"/>
</clipPath>
</defs>
</svg>
